<?xml version="1.0" standalone="no"?>
<!DOCTYPE svg PUBLIC "-//W3C//DTD SVG 20010904//EN"
 "http://www.w3.org/TR/2001/REC-SVG-20010904/DTD/svg10.dtd">
<svg version="1.0" xmlns="http://www.w3.org/2000/svg"
 width="36" height="36" viewBox="0 0 1024.000000 1024.000000"
 preserveAspectRatio="xMidYMid meet">

<g transform="translate(0.000000,1024.000000) scale(0.100000,-0.100000)"
fill="#000000" stroke="none">
<path d="M6780 7627 c-35 -17 -56 -65 -80 -182 -73 -358 -110 -457 -207 -553
-109 -109 -264 -178 -518 -232 -119 -25 -139 -32 -166 -60 -36 -36 -45 -72
-28 -117 21 -55 52 -71 189 -97 479 -94 632 -251 716 -737 16 -97 45 -183 70
-210 10 -11 34 -24 55 -30 31 -10 43 -9 76 7 50 25 65 59 98 219 39 190 69
289 120 391 101 205 289 314 650 375 85 14 120 33 140 75 19 40 19 55 -1 97
-23 48 -51 61 -195 91 -432 90 -593 231 -684 600 -8 34 -26 114 -39 179 -25
117 -47 166 -86 187 -26 14 -80 12 -110 -3z m163 -836 c57 -73 161 -161 257
-217 72 -42 78 -48 63 -60 -10 -7 -23 -14 -28 -14 -21 0 -122 -74 -183 -134
-80 -76 -140 -161 -182 -251 l-32 -70 -29 63 c-72 158 -199 290 -358 372 -71
37 -71 39 14 82 142 72 279 217 345 366 l24 53 34 -68 c18 -37 52 -92 75 -122z"/>
<path d="M3164 5750 c-199 -29 -361 -142 -457 -320 -77 -142 -72 -65 -72
-1200 l0 -1015 24 -70 c74 -216 225 -372 428 -441 128 -44 112 -43 1921 -44
1882 0 1796 -3 1942 57 231 94 375 273 425 528 14 71 16 193 12 1010 -3 857
-5 935 -21 990 -25 83 -42 113 -79 135 -41 25 -83 25 -124 0 -48 -29 -55 -50
-48 -143 4 -45 9 -498 11 -1007 4 -687 2 -937 -7 -970 -45 -172 -150 -285
-304 -325 -49 -13 -287 -15 -1839 -13 l-1781 3 -70 34 c-88 43 -159 115 -205
207 l-35 69 0 995 0 995 29 57 c33 68 93 138 142 169 20 12 68 30 107 40 67
18 141 19 1616 19 1516 0 1547 0 1578 20 65 39 78 115 31 175 -45 58 45 55
-1630 54 -849 -1 -1566 -5 -1594 -9z"/>
<path d="M6310 5121 c-90 -6 -122 -20 -139 -58 -15 -34 -15 -457 1 -486 35
-66 62 -71 338 -64 258 7 289 12 328 62 21 27 22 37 22 251 l0 224 -27 30
c-17 19 -44 35 -68 40 -43 10 -313 10 -455 1z"/>
<path d="M3314 5101 c-47 -29 -54 -63 -54 -275 0 -218 7 -255 53 -288 31 -23
37 -23 302 -23 239 0 274 2 302 18 18 9 38 27 44 39 15 27 13 472 -2 500 -24
44 -53 48 -341 48 -251 0 -276 -2 -304 -19z"/>
<path d="M4288 5104 c-15 -8 -32 -24 -38 -35 -7 -13 -11 -102 -10 -252 1 -258
2 -265 68 -293 31 -13 77 -15 292 -12 230 3 258 5 287 22 17 11 36 31 43 45
15 32 14 451 -1 484 -24 54 -44 57 -341 57 -221 -1 -278 -4 -300 -16z"/>
<path d="M5248 5103 c-14 -9 -31 -27 -37 -40 -7 -15 -11 -107 -11 -241 0 -325
-11 -316 366 -310 350 4 334 -10 334 306 0 228 -5 253 -52 286 -34 24 -561 23
-600 -1z"/>
<path d="M4745 4221 c-183 -11 -185 -15 -185 -306 0 -229 7 -262 59 -289 26
-14 84 -16 408 -15 422 0 437 2 465 59 15 30 18 64 17 240 0 233 -6 264 -59
295 -33 19 -52 20 -315 21 -154 1 -329 -2 -390 -5z"/>
<path d="M3693 4213 c-12 -2 -34 -18 -48 -34 l-25 -31 0 -234 0 -234 29 -32
29 -33 254 -3 c139 -2 267 -1 284 3 18 3 44 17 58 32 l26 26 0 239 c0 145 -4
247 -10 259 -25 45 -53 49 -322 48 -139 -1 -263 -4 -275 -6z"/>
<path d="M5821 4207 c-13 -6 -34 -25 -45 -40 -19 -26 -21 -44 -25 -215 -3
-211 6 -276 45 -313 l26 -24 287 0 c326 0 330 1 357 71 13 35 15 76 13 247 -4
190 -6 208 -25 234 -38 51 -49 53 -339 53 -195 0 -277 -4 -294 -13z"/>
<path d="M4130 3292 c-74 -37 -90 -137 -31 -196 l31 -31 828 -3 c455 -2 851 0
880 3 39 5 62 14 85 34 27 25 31 35 31 84 1 41 -4 60 -19 77 -45 51 -25 50
-927 50 -783 0 -846 -1 -878 -18z"/>
</g>
</svg>
